<svg id="Layer_1" data-name="Layer 1" xmlns="http://www.w3.org/2000/svg" viewBox="0 0 236.53 230.62"><defs><style>.cls-1{fill:#00005b;}.cls-2{fill:#99f;}</style></defs><g id="Layer_2_1_-8" data-name="Layer 2 1 -8"><g id="Surfaces"><g id="Video_Audio_Surface" data-name="Video Audio Surface"><g id="Outline_no_shadow-3" data-name="Outline no shadow-3"><path id="path2194" class="cls-1" d="M83.62,40.94H236.38a41.86,41.86,0,0,1,41.89,41.89V229.67a41.86,41.86,0,0,1-41.89,41.89H83.62a41.86,41.86,0,0,1-41.89-41.89V82.83A41.86,41.86,0,0,1,83.62,40.94Z" transform="translate(-41.73 -40.94)"/></g></g></g><g id="Outlined_Mnemonics_Logos" data-name="Outlined Mnemonics Logos"><g id="Ae"><path id="path2199" class="cls-2" d="M136.74,178.92H100.08l-7.49,23.26a1.74,1.74,0,0,1-1.87,1.38H72.19c-1.09,0-1.38-.59-1.09-1.78l31.74-91c.29-1,.59-1.88,1-3.06a34,34,0,0,0,.6-6.41,1,1,0,0,1,.79-1.08h25.52c.69,0,1.18.3,1.28.79l36,101c.3,1.08,0,1.57-1,1.57H146.4a1.49,1.49,0,0,1-1.58-1.08ZM105.8,159.3h25c-.59-2.07-1.38-4.53-2.27-7.09s-1.77-5.52-2.66-8.48-1.87-6-2.86-9.06-1.87-5.92-2.66-8.77-1.48-5.33-2.17-7.69H118a124.16,124.16,0,0,1-3.35,12.71c-1.48,4.73-3,9.66-4.54,14.59-1.28,5-2.86,9.65-4.33,13.79Z" transform="translate(-41.73 -40.94)"/><path id="path2201" class="cls-2" d="M226.43,169.85H195.18a21.76,21.76,0,0,0,3.06,8.77,15.67,15.67,0,0,0,7.2,5.92A30.67,30.67,0,0,0,218.05,187a59.41,59.41,0,0,0,10.25-1.09,37.06,37.06,0,0,0,8.77-2.26c.49-.4.79-.2.79.79v15.08a4.94,4.94,0,0,1-.2,1.18,2.39,2.39,0,0,1-.69.69,42,42,0,0,1-9.85,3,66.38,66.38,0,0,1-14,1.19c-7.49,0-13.8-1.19-18.92-3.45a33.1,33.1,0,0,1-12.42-9.37A36.12,36.12,0,0,1,175,179.8a51.1,51.1,0,0,1,.39-30.06,40.37,40.37,0,0,1,7.4-13.5,35.76,35.76,0,0,1,11.92-9.36c4.63-2.27,10.15-3.06,16.46-3.06a35.74,35.74,0,0,1,15.28,3.06,27.27,27.27,0,0,1,10.34,7.88A36,36,0,0,1,242.69,146a38.77,38.77,0,0,1,1.87,12c0,2.37-.1,4.44-.2,6.31s-.29,3.25-.39,4.14a1.47,1.47,0,0,1-1.38,1.28c-.59,0-1.68.1-3.25.2a46.27,46.27,0,0,1-5.72.29c-2.27,0-4.63-.39-7.19-.39Zm-31.25-14.39H216c2.56,0,4.43,0,5.62-.1a4.69,4.69,0,0,0,2.26-.79v-1a11.21,11.21,0,0,0-.59-3.65,13,13,0,0,0-12.81-9.06,13.88,13.88,0,0,0-13.11,7.49A20.53,20.53,0,0,0,195.18,155.46Z" transform="translate(-41.73 -40.94)"/></g></g></g></svg>