<?xml version="1.0" encoding="utf-8"?>
<!-- Generator: Adobe Illustrator 25.2.0, SVG Export Plug-In . SVG Version: 6.00 Build 0)  -->
<svg version="1.0" id="Layer_1" xmlns="http://www.w3.org/2000/svg" xmlns:xlink="http://www.w3.org/1999/xlink" x="0px" y="0px"
	 viewBox="0 0 236.5 230.6" style="enable-background:new 0 0 236.5 230.6;" xml:space="preserve">
<style type="text/css">
	.st0{fill-rule:evenodd;clip-rule:evenodd;fill:#7952B3;}
</style>
<path class="st0" d="M49.1,21.1c-13.5,0-23.5,11.8-23,24.6C26.5,58,26,74,22,87c-4,13-10.8,21.3-22,22.4v12
	c11.1,1.1,17.9,9.3,22,22.4c4,13,4.6,28.9,4.1,41.2c-0.4,12.8,9.5,24.6,23,24.6h138.3c13.5,0,23.5-11.8,23-24.6
	c-0.4-12.3,0.1-28.2,4.1-41.2c4-13,10.8-21.3,21.9-22.4v-12c-11.1-1.1-17.9-9.3-21.9-22.4c-4-13-4.6-28.9-4.1-41.2
	c0.4-12.8-9.5-24.6-23-24.6L49.1,21.1L49.1,21.1z M160.4,137.1c0,17.6-13.2,28.3-35,28.3H88.2c-2.2,0-4-1.8-4-4l0,0V69.2
	c0-2.2,1.8-4,4-4h37c18.2,0,30.2,9.9,30.2,25c0,10.6-8,20.1-18.3,21.8v0.6C151,114.1,160.4,123.7,160.4,137.1L160.4,137.1z
	 M121.3,77.9h-21.2v29.9H118c13.8,0,21.4-5.6,21.4-15.5C139.4,83,132.8,77.9,121.3,77.9L121.3,77.9z M100.1,119.7v33h22
	c14.4,0,22-5.8,22-16.6c0-10.8-7.8-16.4-22.9-16.4L100.1,119.7L100.1,119.7z"/>
</svg>
