<?xml version="1.0" encoding="utf-8"?>
<!-- Generator: Adobe Illustrator 25.2.0, SVG Export Plug-In . SVG Version: 6.00 Build 0)  -->
<svg version="1.0" id="Layer_1" xmlns="http://www.w3.org/2000/svg" xmlns:xlink="http://www.w3.org/1999/xlink" x="0px" y="0px"
	 viewBox="0 0 236.5 230.6" style="enable-background:new 0 0 236.5 230.6;" xml:space="preserve">
<style type="text/css">
	.st0{display:none;}
	.st1{display:inline;}
	.st2{fill:#00005B;}
	.st3{fill:#9999FF;}
	.st4{fill-rule:evenodd;clip-rule:evenodd;fill:#545454;}
</style>
<g id="Layer_2_1_-8" class="st0">
	<g id="Surfaces" class="st1">
		<g id="Video_Audio_Surface">
			<g id="Outline_no_shadow-3">
				<path id="path2194" class="st2" d="M41.9,0h152.8c23.1,0,41.9,18.7,41.9,41.8c0,0,0,0,0,0.1v146.8c0,23.1-18.7,41.9-41.8,41.9
					c0,0,0,0-0.1,0H41.9C18.8,230.6,0,211.9,0,188.8c0,0,0,0,0-0.1V41.9C0,18.8,18.7,0,41.9,0C41.8,0,41.9,0,41.9,0z"/>
			</g>
		</g>
	</g>
	<g id="Outlined_Mnemonics_Logos" class="st1">
		<g id="Ae">
			<path id="path2199" class="st3" d="M95,138H58.4l-7.5,23.3c-0.2,0.9-1,1.5-1.9,1.4H30.5c-1.1,0-1.4-0.6-1.1-1.8l31.7-91
				c0.3-1,0.6-1.9,1-3.1c0.4-2.1,0.6-4.3,0.6-6.4c-0.1-0.5,0.3-1,0.8-1.1H89c0.7,0,1.2,0.3,1.3,0.8l36,101c0.3,1.1,0,1.6-1,1.6
				h-20.6c-0.7,0.1-1.4-0.4-1.6-1.1L95,138z M64.1,118.4h25c-0.6-2.1-1.4-4.5-2.3-7.1s-1.8-5.5-2.7-8.5c-0.9-3-1.9-6-2.9-9.1
				c-1-3.1-1.9-5.9-2.7-8.8c-0.8-2.9-1.5-5.3-2.2-7.7h-0.2c-0.9,4.3-2,8.5-3.4,12.7c-1.5,4.7-3,9.7-4.5,14.6
				C67.1,109.6,65.5,114.2,64.1,118.4L64.1,118.4z"/>
			<path id="path2201" class="st3" d="M184.7,128.9h-31.2c0.4,3.1,1.4,6.1,3.1,8.8c1.7,2.7,4.3,4.7,7.2,5.9c4,1.7,8.3,2.5,12.6,2.5
				c3.4-0.1,6.9-0.4,10.2-1.1c3-0.4,6-1.2,8.8-2.3c0.5-0.4,0.8-0.2,0.8,0.8v15.1c0,0.4-0.1,0.8-0.2,1.2c-0.2,0.3-0.4,0.5-0.7,0.7
				c-3.1,1.4-6.5,2.4-9.9,3c-4.6,0.9-9.3,1.3-14,1.2c-7.5,0-13.8-1.2-18.9-3.4c-4.8-2.1-9.1-5.3-12.4-9.4c-3.1-3.8-5.4-8.2-6.8-13
				c-2.9-9.8-2.8-20.3,0.4-30.1c1.6-4.9,4.1-9.5,7.4-13.5c3.3-3.9,7.3-7.1,11.9-9.4c4.6-2.3,10.1-3.1,16.5-3.1
				c5.3-0.1,10.5,0.9,15.3,3.1c4,1.8,7.6,4.5,10.3,7.9c2.6,3.4,4.6,7.2,5.9,11.2c1.2,3.9,1.9,7.9,1.9,12c0,2.4-0.1,4.4-0.2,6.3
				s-0.3,3.2-0.4,4.1c-0.1,0.7-0.7,1.2-1.4,1.3c-0.6,0-1.7,0.1-3.2,0.2c-1.9,0.2-3.8,0.3-5.7,0.3
				C189.6,129.3,187.3,128.9,184.7,128.9L184.7,128.9z M153.4,114.5h20.8c2.6,0,4.4,0,5.6-0.1c0.8-0.1,1.6-0.3,2.3-0.8v-1
				c0-1.2-0.2-2.5-0.6-3.6c-1.8-5.5-7-9.2-12.8-9.1c-5.5-0.3-10.6,2.6-13.1,7.5C154.5,109.6,153.7,112,153.4,114.5z"/>
		</g>
	</g>
</g>
<g>
	<path class="st4" d="M13.4,55.8C5.9,56.4,0,62.8,0,70.5v118.3c0,8.2,6.6,14.8,14.7,14.8h207c8.2,0,14.8-6.6,14.8-14.8V70.5
		c0-7.7-5.9-14.1-13.5-14.7h-54.7l-3.8-19.3c-1.1-5.5-5.8-9.4-11.2-9.4h-35.3H83.2c-5.5,0-10.2,4-11.2,9.4l-3.7,19.3H13.4z
		 M118.3,75.9c7.3,0,14.2,1.5,20.6,4.1h0c6.6,2.8,12.5,6.7,17.4,11.6v0h0c4.9,4.9,8.9,10.9,11.6,17.4l0,0c2.6,6.4,4.1,13.3,4.1,20.5
		c0,7.3-1.5,14.2-4.1,20.6l0,0c-2.4,5.7-7.1,13.3-11.7,17.4c-4.1,4.6-11.7,9.3-17.4,11.6l0,0c-6.4,2.6-13.3,4.1-20.6,4.1
		c-7.2,0-14.2-1.5-20.6-4.1v0c-6.6-2.7-12.5-6.7-17.4-11.6h-0.1c-4.6-4.2-9.3-11.7-11.6-17.4l0,0c-2.7-6.4-4.1-13.3-4.1-20.6
		c0-7.2,1.4-14.2,4.1-20.5l0,0c2.7-6.6,6.7-12.5,11.6-17.4l0,0l0.1,0c4.9-4.9,10.8-8.9,17.4-11.6l0,0C104,77.4,111,75.9,118.3,75.9
		L118.3,75.9z"/>
	<path class="st4" d="M84.7,143.6c1.8,4.4,4.6,8.4,7.9,11.7c3.4,3.4,7.3,6.1,11.8,7.9c4.2,1.8,8.9,2.7,13.9,2.7
		c4.9,0,9.7-0.9,13.9-2.7c4.4-1.8,8.4-4.5,11.8-7.9c3.3-3.4,6.1-7.3,7.8-11.7c1.8-4.3,2.8-8.9,2.8-13.9c0-4.9-1-9.6-2.8-13.9
		c-1.8-4.4-4.5-8.4-7.8-11.7c-3.4-3.4-7.4-6.1-11.8-7.9c-4.2-1.8-8.9-2.8-13.9-2.8c-5,0-9.7,1-13.9,2.8c-4.4,1.8-8.4,4.5-11.8,7.9
		c-3.3,3.3-6,7.3-7.9,11.7C83,120,82,124.7,82,129.7C82,134.6,83,139.3,84.7,143.6L84.7,143.6z"/>
	<path class="st4" d="M22.8,77.9c0,5.6,4.5,10.1,10.1,10.1C38.5,88,43,83.5,43,77.9c0-5.6-4.5-10.1-10.1-10.1
		C27.3,67.8,22.8,72.3,22.8,77.9L22.8,77.9z"/>
</g>
</svg>
