<?xml version="1.0" encoding="utf-8"?>
<!-- Generator: Adobe Illustrator 25.2.0, SVG Export Plug-In . SVG Version: 6.00 Build 0)  -->
<svg version="1.0" id="Layer_1" xmlns="http://www.w3.org/2000/svg" xmlns:xlink="http://www.w3.org/1999/xlink" x="0px" y="0px"
	 viewBox="0 0 236.5 230.6" style="enable-background:new 0 0 236.5 230.6;" xml:space="preserve">
<style type="text/css">
	.st0{display:none;}
	.st1{display:inline;}
	.st2{fill:#00005B;}
	.st3{fill:#9999FF;}
	.st4{fill:#D31E25;}
	.st5{fill:#FFFFFF;}
</style>
<g id="Layer_2_1_-8" class="st0">
	<g id="Surfaces" class="st1">
		<g id="Video_Audio_Surface">
			<g id="Outline_no_shadow-3">
				<path id="path2194" class="st2" d="M41.9,0h152.8c23.1,0,41.9,18.7,41.9,41.8c0,0,0,0,0,0.1v146.8c0,23.1-18.7,41.9-41.8,41.9
					c0,0,0,0-0.1,0H41.9C18.8,230.6,0,211.9,0,188.8c0,0,0,0,0-0.1V41.9C0,18.8,18.7,0,41.9,0C41.8,0,41.9,0,41.9,0z"/>
			</g>
		</g>
	</g>
	<g id="Outlined_Mnemonics_Logos" class="st1">
		<g id="Ae">
			<path id="path2199" class="st3" d="M95,138H58.4l-7.5,23.3c-0.2,0.9-1,1.5-1.9,1.4H30.5c-1.1,0-1.4-0.6-1.1-1.8l31.7-91
				c0.3-1,0.6-1.9,1-3.1c0.4-2.1,0.6-4.3,0.6-6.4c-0.1-0.5,0.3-1,0.8-1.1H89c0.7,0,1.2,0.3,1.3,0.8l36,101c0.3,1.1,0,1.6-1,1.6
				h-20.6c-0.7,0.1-1.4-0.4-1.6-1.1L95,138z M64.1,118.4h25c-0.6-2.1-1.4-4.5-2.3-7.1s-1.8-5.5-2.7-8.5c-0.9-3-1.9-6-2.9-9.1
				c-1-3.1-1.9-5.9-2.7-8.8c-0.8-2.9-1.5-5.3-2.2-7.7h-0.2c-0.9,4.3-2,8.5-3.4,12.7c-1.5,4.7-3,9.7-4.5,14.6
				C67.1,109.6,65.5,114.2,64.1,118.4L64.1,118.4z"/>
			<path id="path2201" class="st3" d="M184.7,128.9h-31.2c0.4,3.1,1.4,6.1,3.1,8.8c1.7,2.7,4.3,4.7,7.2,5.9c4,1.7,8.3,2.5,12.6,2.5
				c3.4-0.1,6.9-0.4,10.2-1.1c3-0.4,6-1.2,8.8-2.3c0.5-0.4,0.8-0.2,0.8,0.8v15.1c0,0.4-0.1,0.8-0.2,1.2c-0.2,0.3-0.4,0.5-0.7,0.7
				c-3.1,1.4-6.5,2.4-9.9,3c-4.6,0.9-9.3,1.3-14,1.2c-7.5,0-13.8-1.2-18.9-3.4c-4.8-2.1-9.1-5.3-12.4-9.4c-3.1-3.8-5.4-8.2-6.8-13
				c-2.9-9.8-2.8-20.3,0.4-30.1c1.6-4.9,4.1-9.5,7.4-13.5c3.3-3.9,7.3-7.1,11.9-9.4c4.6-2.3,10.1-3.1,16.5-3.1
				c5.3-0.1,10.5,0.9,15.3,3.1c4,1.8,7.6,4.5,10.3,7.9c2.6,3.4,4.6,7.2,5.9,11.2c1.2,3.9,1.9,7.9,1.9,12c0,2.4-0.1,4.4-0.2,6.3
				s-0.3,3.2-0.4,4.1c-0.1,0.7-0.7,1.2-1.4,1.3c-0.6,0-1.7,0.1-3.2,0.2c-1.9,0.2-3.8,0.3-5.7,0.3
				C189.6,129.3,187.3,128.9,184.7,128.9L184.7,128.9z M153.4,114.5h20.8c2.6,0,4.4,0,5.6-0.1c0.8-0.1,1.6-0.3,2.3-0.8v-1
				c0-1.2-0.2-2.5-0.6-3.6c-1.8-5.5-7-9.2-12.8-9.1c-5.5-0.3-10.6,2.6-13.1,7.5C154.5,109.6,153.7,112,153.4,114.5z"/>
		</g>
	</g>
</g>
<path class="st4" d="M33.6,230.6H203c16.9,0,30.7-13.7,30.7-30.7V30.7C233.6,13.7,219.9,0,203,0H33.6C16.6,0,2.9,13.7,2.9,30.7V200
	C2.9,216.9,16.6,230.6,33.6,230.6z"/>
<path class="st5" d="M184.3,71.5c-11.6-11.6-27.3-18.1-43.8-18.1s-32.2,6.4-43.8,18.1l-1.2,1.2c-3-0.5-5.7-0.8-8.7-0.8
	c-13.8,0-27.3,5.5-37.2,15.6c-20.6,20.6-20.6,53.8,0,74.3c9.9,9.9,23.1,15.4,37.2,15.4h55c16.3-0.3,31.5-6.7,42.9-18.1
	C208.6,134.9,208.6,95.5,184.3,71.5z M86.9,165.9c-11.1,0-21.3-4.7-29-12.7c-16.1-16.1-16.1-42.1,0-58c7.7-7.7,18.1-12.1,29-12.1
	h0.3c2.2,0,3.9,0.3,6,0.5c2.2,0.5,4.2,0.8,6.4,1.5c3.9,1.2,7.7,3.3,10.9,5.5c1.5,1.2,3.3,2.2,4.4,3.7l1.2,1.2l16.8,16.8
	c2.2,2.2,2.2,5.7,0,8.2c-1.2,1.2-2.5,1.7-3.9,1.7c-1.5,0-3-0.5-3.9-1.7l-13.8-13.8l-3-3c-0.5-0.5-1-0.8-1.2-1.2
	c-3.9-3.5-8.7-5.7-13.8-6.7c-1.7-0.5-3.7-0.5-5.5-0.5h-0.8c-7.7,0.3-14.6,3.3-20.1,8.6c-11.6,11.6-11.6,30.2,0,41.9
	c5.7,5.7,12.9,8.6,21,8.6H93l5,4.7c2.5,2.5,5,5,8,6.7L86.9,165.9L86.9,165.9z M176.3,151c-5.2,5.2-11.4,9.1-18.3,11.6
	c-2.2,0.8-4.2,1.2-6.4,2c-3.3,0.8-6.7,1.2-10.2,1.2h-1c-11.9,0-23.1-3.9-32-11.4c-1.2-1-2.5-2.2-3.7-3.3l-23.8-23.8
	c-2.2-2.2-2.2-5.7,0-8.2c1.2-1.2,2.5-1.7,3.9-1.7c1.5,0,3,0.5,3.9,1.7l23.5,23.5c2.2,2.2,4.7,3.9,7.2,5.7c6,3.7,12.9,5.7,20.3,5.7
	c3.3,0,6.7-0.5,9.7-1.2c2-0.5,3.9-1.2,5.7-2c4.4-2,8.7-4.7,12.4-8.4c15.1-15.1,15.1-39.9,0-55C159.8,79.7,149.9,76,140,76
	c-7.7,0-15.1,2.2-21.8,6.7c-3.3-2.5-6.7-4.7-10.7-6.4c9.4-7.7,21-11.6,32.5-11.6c12.9,0,25.8,5,35.7,14.6
	C195.9,99.2,195.9,131.2,176.3,151"/>
</svg>
