<?xml version="1.0" encoding="utf-8"?>
<!-- Generator: Adobe Illustrator 25.2.0, SVG Export Plug-In . SVG Version: 6.00 Build 0)  -->
<svg version="1.1" id="Layer_1" xmlns="http://www.w3.org/2000/svg" xmlns:xlink="http://www.w3.org/1999/xlink" x="0px" y="0px"
	 viewBox="0 0 236.5 230.6" style="enable-background:new 0 0 236.5 230.6;" xml:space="preserve">
<style type="text/css">
	.st0{fill:#264DE4;}
	.st1{fill:#2965F1;}
	.st2{fill:#EBEBEB;}
	.st3{fill:#FFFFFF;}
</style>
<path class="st0" d="M118.2,230.6l-66.7-18.5L36.5,45.3H200l-14.9,166.8L118.2,230.6L118.2,230.6z"/>
<path class="st1" d="M172.3,201.4L185,59h-66.8v157.4L172.3,201.4L172.3,201.4z"/>
<path class="st2" d="M70.6,120.8l1.8,20.5h45.8v-20.5H70.6z M67,79.4l1.8,20.5h49.4V79.4H67z M118.3,173.9L118.3,173.9l-22.9-6.1
	l-1.5-16.3H73.4l2.9,32.1l41.9,11.6h0.1L118.3,173.9z"/>
<path d="M75,0h24.8v10.4H85.4v10.4h14.4v10.4H75V0z M104.7,0h24.8v9h-14.4v1.8h14.4v20.7h-24.8v-9.5h14.4v-1.8h-14.4
	C104.7,20.3,104.7,0,104.7,0z M134.5,0h24.8v9h-14.4v1.8h14.4v20.7h-24.8v-9.5h14.4v-1.8h-14.4L134.5,0L134.5,0z"/>
<path class="st3" d="M165.7,120.8l3.7-41.4h-51.2v20.5H147l-1.9,20.9h-27v20.5h25.2l-2.3,26.5l-22.8,6.2v21.3l41.9-11.6l0.3-3.5
	l4.8-53.8L165.7,120.8L165.7,120.8z"/>
</svg>
