<?xml version="1.0" encoding="utf-8"?>
<!-- Generator: Adobe Illustrator 25.2.0, SVG Export Plug-In . SVG Version: 6.00 Build 0)  -->
<svg version="1.0" id="Layer_1" xmlns="http://www.w3.org/2000/svg" xmlns:xlink="http://www.w3.org/1999/xlink" x="0px" y="0px"
	 viewBox="0 0 236.5 230.6" style="enable-background:new 0 0 236.5 230.6;" xml:space="preserve">
<style type="text/css">
	.st0{display:none;}
	.st1{display:inline;}
	.st2{fill:#00005B;}
	.st3{fill:#9999FF;}
	.st4{fill:#545454;}
</style>
<g id="Layer_2_1_-8" class="st0">
	<g id="Surfaces" class="st1">
		<g id="Video_Audio_Surface">
			<g id="Outline_no_shadow-3">
				<path id="path2194" class="st2" d="M41.9,0h152.8c23.1,0,41.9,18.7,41.9,41.8c0,0,0,0,0,0.1v146.8c0,23.1-18.7,41.9-41.8,41.9
					c0,0,0,0-0.1,0H41.9C18.8,230.6,0,211.9,0,188.8c0,0,0,0,0-0.1V41.9C0,18.8,18.7,0,41.9,0C41.8,0,41.9,0,41.9,0z"/>
			</g>
		</g>
	</g>
	<g id="Outlined_Mnemonics_Logos" class="st1">
		<g id="Ae">
			<path id="path2199" class="st3" d="M95,138H58.4l-7.5,23.3c-0.2,0.9-1,1.5-1.9,1.4H30.5c-1.1,0-1.4-0.6-1.1-1.8l31.7-91
				c0.3-1,0.6-1.9,1-3.1c0.4-2.1,0.6-4.3,0.6-6.4c-0.1-0.5,0.3-1,0.8-1.1H89c0.7,0,1.2,0.3,1.3,0.8l36,101c0.3,1.1,0,1.6-1,1.6
				h-20.6c-0.7,0.1-1.4-0.4-1.6-1.1L95,138z M64.1,118.4h25c-0.6-2.1-1.4-4.5-2.3-7.1s-1.8-5.5-2.7-8.5c-0.9-3-1.9-6-2.9-9.1
				c-1-3.1-1.9-5.9-2.7-8.8c-0.8-2.9-1.5-5.3-2.2-7.7h-0.2c-0.9,4.3-2,8.5-3.4,12.7c-1.5,4.7-3,9.7-4.5,14.6
				C67.1,109.6,65.5,114.2,64.1,118.4L64.1,118.4z"/>
			<path id="path2201" class="st3" d="M184.7,128.9h-31.2c0.4,3.1,1.4,6.1,3.1,8.8c1.7,2.7,4.3,4.7,7.2,5.9c4,1.7,8.3,2.5,12.6,2.5
				c3.4-0.1,6.9-0.4,10.2-1.1c3-0.4,6-1.2,8.8-2.3c0.5-0.4,0.8-0.2,0.8,0.8v15.1c0,0.4-0.1,0.8-0.2,1.2c-0.2,0.3-0.4,0.5-0.7,0.7
				c-3.1,1.4-6.5,2.4-9.9,3c-4.6,0.9-9.3,1.3-14,1.2c-7.5,0-13.8-1.2-18.9-3.4c-4.8-2.1-9.1-5.3-12.4-9.4c-3.1-3.8-5.4-8.2-6.8-13
				c-2.9-9.8-2.8-20.3,0.4-30.1c1.6-4.9,4.1-9.5,7.4-13.5c3.3-3.9,7.3-7.1,11.9-9.4c4.6-2.3,10.1-3.1,16.5-3.1
				c5.3-0.1,10.5,0.9,15.3,3.1c4,1.8,7.6,4.5,10.3,7.9c2.6,3.4,4.6,7.2,5.9,11.2c1.2,3.9,1.9,7.9,1.9,12c0,2.4-0.1,4.4-0.2,6.3
				s-0.3,3.2-0.4,4.1c-0.1,0.7-0.7,1.2-1.4,1.3c-0.6,0-1.7,0.1-3.2,0.2c-1.9,0.2-3.8,0.3-5.7,0.3
				C189.6,129.3,187.3,128.9,184.7,128.9L184.7,128.9z M153.4,114.5h20.8c2.6,0,4.4,0,5.6-0.1c0.8-0.1,1.6-0.3,2.3-0.8v-1
				c0-1.2-0.2-2.5-0.6-3.6c-1.8-5.5-7-9.2-12.8-9.1c-5.5-0.3-10.6,2.6-13.1,7.5C154.5,109.6,153.7,112,153.4,114.5z"/>
		</g>
	</g>
</g>
<g>
	<g>
		<g>
			<path class="st4" d="M66.4,10.5c0,5.8-2.1,10.5-7.9,10.5c-5.8,0-10.5-4.7-10.5-10.5C47.9,4.7,52.6,0,58.4,0
				C64.3,0,66.4,4.7,66.4,10.5z"/>
		</g>
		<g>
			<path class="st4" d="M108.1,10.5c0-5.8,2.1-10.5,7.9-10.5c5.8,0,10.5,4.7,10.5,10.5c0,5.8-4.7,10.5-10.5,10.5
				C110.3,21.1,108.1,16.4,108.1,10.5z"/>
		</g>
	</g>
	<g>
		<path class="st4" d="M87.3,139.9c-32.2,0-58.3-26.2-58.3-58.3v-51c0-14.5,11.8-26.3,26.3-26.3v12.4c-7.6,0-13.8,6.2-13.8,13.8v51
			c0,25.3,20.6,45.9,45.9,45.9c25.3,0,45.9-20.6,45.9-45.9v-51c0-7.6-6.2-13.8-13.8-13.8V4.3c14.5,0,26.3,11.8,26.3,26.3v51
			C145.6,113.8,119.4,139.9,87.3,139.9z"/>
	</g>
	<g>
		<path class="st4" d="M139.5,230.6c-32.2,0-58.3-26.2-58.3-58.3v-38.6h12.4v38.6c0,25.3,20.6,45.9,45.9,45.9
			c25.3,0,45.9-20.6,45.9-45.9v-38.6h12.4v38.6C197.8,204.5,171.7,230.6,139.5,230.6z"/>
	</g>
	<g>
		<path class="st4" d="M207.6,133.4c0,8.5-6.9,15.5-15.5,15.5c-8.5,0-15.5-6.9-15.5-15.5c0-8.5,6.9-15.5,15.5-15.5
			C200.7,117.9,207.6,124.8,207.6,133.4z"/>
		<path class="st4" d="M199,133.4c0,3.8-3.1,6.8-6.8,6.8c-3.8,0-6.8-3.1-6.8-6.8c0-3.8,3.1-6.8,6.8-6.8
			C195.9,126.6,199,129.6,199,133.4z"/>
	</g>
</g>
</svg>
