<?xml version="1.0" encoding="utf-8"?>
<!-- Generator: Adobe Illustrator 25.2.0, SVG Export Plug-In . SVG Version: 6.00 Build 0)  -->
<svg version="1.1" id="Layer_1" xmlns="http://www.w3.org/2000/svg" xmlns:xlink="http://www.w3.org/1999/xlink" x="0px" y="0px"
	 viewBox="0 0 236.5 230.6" style="enable-background:new 0 0 236.5 230.6;" xml:space="preserve">
<style type="text/css">
	.st0{fill:#E44D26;}
	.st1{fill:#F16529;}
	.st2{fill:#EBEBEB;}
	.st3{fill:#FFFFFF;}
</style>
<polygon class="st0" points="51.5,212.1 36.6,45.3 200,45.3 185.1,212.1 118.2,230.6 "/>
<polygon class="st1" points="118.3,216.4 172.3,201.4 185.1,59 118.3,59 "/>
<polygon class="st2" points="118.3,120.8 91.2,120.8 89.3,99.9 118.3,99.9 118.3,79.4 118.2,79.4 67,79.4 67.5,84.9 72.5,141.3 
	118.3,141.3 "/>
<polygon class="st2" points="118.3,173.9 118.2,173.9 95.4,167.8 93.9,151.5 82.9,151.5 73.4,151.5 76.3,183.6 118.2,195.2 
	118.3,195.2 "/>
<path d="M51.8,0h10.4v10.3h9.5V0h10.4v31.1H71.7V20.7h-9.5v10.4H51.8V0z"/>
<path d="M95.8,10.3h-9.2V0h28.7v10.3h-9.2v20.8H95.8V10.3z"/>
<path d="M119.8,0h10.8l6.7,11L144,0h10.9v31.1h-10.3V15.7l-7.2,11.1h-0.2L130,15.7v15.4h-10.2V0z"/>
<path d="M160,0h10.4v20.8H185v10.3h-25V0z"/>
<polygon class="st3" points="118.2,120.8 118.2,141.3 143.4,141.3 141,167.8 118.2,173.9 118.2,195.2 160.1,183.6 160.4,180.1 
	165.2,126.3 165.7,120.8 160.2,120.8 "/>
<polygon class="st3" points="118.2,79.4 118.2,92.1 118.2,99.8 118.2,99.9 167.5,99.9 167.5,99.9 167.6,99.9 168,95.3 168.9,84.9 
	169.4,79.4 "/>
</svg>
