<?xml version="1.0" encoding="utf-8"?>
<!-- Generator: Adobe Illustrator 25.2.0, SVG Export Plug-In . SVG Version: 6.00 Build 0)  -->
<svg version="1.0" id="Layer_1" xmlns="http://www.w3.org/2000/svg" xmlns:xlink="http://www.w3.org/1999/xlink" x="0px" y="0px"
	 viewBox="0 0 236.5 230.6" style="enable-background:new 0 0 236.5 230.6;" xml:space="preserve">
<style type="text/css">
	.st0{fill:#4B4B4D;}
	.st1{fill:#F38030;}
	.st2{fill:#F89B34;}
	.st3{fill-rule:evenodd;clip-rule:evenodd;fill:#231F20;}
	.st4{fill:#FFFFFF;}
	.st5{fill:#EAEBEC;}
</style>
<g>
	<polyline class="st0" points="118.2,230.6 51.5,212.1 36.6,45.4 199.9,45.4 185.1,212 	"/>
	<polyline class="st0" points="172.3,201.5 185,58.9 118.3,58.9 118.3,216.5 	"/>
	<polyline class="st0" points="122.6,0 122.6,8.5 131.5,21.1 123.3,21.1 123.3,31.1 148,31.1 148,21.5 139.7,11.1 148,11.1 148,0 	
		"/>
	<polyline class="st0" points="121.9,79.4 121.9,99.9 167.6,98.9 169.4,79.4 	"/>
	<polyline class="st0" points="160.2,120.8 121.9,120.8 121.9,141.3 148.1,139.6 145.7,166.9 121.9,172.9 121.9,194.2 160.1,183.6 
		160.4,180.2 165.3,126.3 165.8,120.8 	"/>
	<polyline class="st0" points="138.9,131.3 121.9,131.3 121.9,89.7 140.8,89.7 	"/>
	<polyline class="st0" points="113.9,172.8 87.5,165.3 86.7,153.8 73.4,151.5 76.3,183.6 113.9,194 	"/>
	<polyline class="st0" points="113.9,79.4 96.6,79.4 100.1,184.2 113.9,184.2 	"/>
	<polyline class="st0" points="103.2,0 103.2,20.9 99,20.9 99,17 88.6,17 88.6,31.1 113.7,31.1 113.7,0 	"/>
	<polyline class="st1" points="118.2,230.6 51.5,212.1 36.6,45.4 199.9,45.4 185.1,212 	"/>
	<polyline class="st2" points="172.3,201.5 185,58.9 118.3,58.9 118.3,216.5 	"/>
	<polyline class="st3" points="122.6,0 122.6,8.5 131.5,21.1 123.3,21.1 123.3,31.1 148,31.1 148,21.5 139.7,11.1 148,11.1 148,0 	
		"/>
	<polyline class="st4" points="121.9,79.4 121.9,99.9 167.6,98.9 169.4,79.4 	"/>
	<polyline class="st4" points="160.2,120.8 121.9,120.8 121.9,141.3 148.1,139.6 145.7,166.9 121.9,172.9 121.9,194.2 160.1,183.6 
		160.4,180.2 165.3,126.3 165.8,120.8 	"/>
	<polyline class="st4" points="138.9,131.3 121.9,131.3 121.9,89.7 140.8,89.7 	"/>
	<polyline class="st5" points="113.9,172.8 87.5,165.3 86.7,153.8 73.4,151.5 76.3,183.6 113.9,194 	"/>
	<polyline class="st5" points="113.9,79.4 96.6,79.4 100.1,184.2 113.9,184.2 	"/>
	<polyline class="st3" points="103.2,0 103.2,20.9 99,20.9 99,17 88.6,17 88.6,31.1 113.7,31.1 113.7,0 	"/>
</g>
</svg>
