<?xml version="1.0" encoding="utf-8"?>
<!-- Generator: Adobe Illustrator 24.3.0, SVG Export Plug-In . SVG Version: 6.00 Build 0)  -->
<svg version="1.1" id="Layer_1" xmlns="http://www.w3.org/2000/svg" xmlns:xlink="http://www.w3.org/1999/xlink" x="0px" y="0px"
	 viewBox="0 0 240 234" style="enable-background:new 0 0 240 234;" xml:space="preserve">
<style type="text/css">
	.st0{fill:#001E36;}
	.st1{fill:#31A8FF;}
</style>
<g transform="translate(160 83)">
	<path class="st0" d="M-117.5-83h155C61-83,80-64,80-40.5v149C80,132,61,151,37.5,151h-155c-23.5,0-42.5-19-42.5-42.5v-149
		C-160-64-141-83-117.5-83z"/>
	<g>
		<path class="st1" d="M-34,82.4h-63.4c-1.1,0-1.6-0.6-1.6-1.8V-21.6c-0.1-0.7,0.4-1.3,1.1-1.4h20c0.5-0.1,1.1,0.3,1.1,0.8v84.3
			h46.2c1,0,1.3,0.5,1.1,1.4l-2.9,17.4c0,0.5-0.3,0.9-0.6,1.2C-33.3,82.3-33.6,82.4-34,82.4L-34,82.4z"/>
		<path class="st1" d="M-18,2.4h17.5c1,0,1.8,0.7,2.1,1.6C2,4.7,2.3,5.5,2.4,6.3c0.2,1,0.4,2.1,0.5,3.1C3,10.5,3.1,11.7,3.1,13
			c3-3.5,6.6-6.4,10.7-8.6c4.6-2.5,9.7-3.7,14.9-3.6c0.7-0.1,1.3,0.4,1.4,1.1v19.9c0,0.8-0.5,1.1-1.6,1.1c-6.5-0.4-13,0.8-18.9,3.4
			c-2,0.9-3.9,2.1-5.4,3.7v51c0,1-0.4,1.4-1.3,1.4h-19.5c-0.8,0.1-1.5-0.4-1.6-1.2V25.4c0-2.4,0-4.9-0.1-7.5s-0.1-5.2-0.2-7.8
			c-0.1-2.2-0.3-4.4-0.6-6.6c-0.1-0.5,0.2-1,0.7-1.1C-18.3,2.3-18.2,2.3-18,2.4L-18,2.4z"/>
	</g>
</g>
</svg>
