<svg id="Layer_1" data-name="Layer 1" xmlns="http://www.w3.org/2000/svg" xmlns:xlink="http://www.w3.org/1999/xlink" viewBox="0 0 236.53 230.62"><defs><style>.cls-1{fill:url(#linear-gradient);}.cls-2{fill:url(#linear-gradient-2);}</style><linearGradient id="linear-gradient" x1="-836.43" y1="653.65" x2="-835.83" y2="653.05" gradientTransform="matrix(189.38, 0, 0, -189.81, 158430.6, 124088.65)" gradientUnits="userSpaceOnUse"><stop offset="0" stop-color="#387eb8"/><stop offset="1" stop-color="#366994"/></linearGradient><linearGradient id="linear-gradient-2" x1="-836.41" y1="653.61" x2="-835.76" y2="652.99" gradientTransform="matrix(189.38, 0, 0, -189.81, 158496.6, 124152.93)" gradientUnits="userSpaceOnUse"><stop offset="0" stop-color="#ffe052"/><stop offset="1" stop-color="#ffc331"/></linearGradient></defs><path class="cls-1" d="M117.43,0C58.58,0,62.25,25.52,62.25,25.52L62.32,52h56.16V59.9H40S2.35,55.63,2.35,115s32.87,57.28,32.87,57.28H54.84V144.73s-1.06-32.87,32.34-32.87h55.71s31.29.51,31.29-30.24V30.77S178.93,0,117.43,0Zm-31,17.78a10.11,10.11,0,1,1-10.1,10.1,10.1,10.1,0,0,1,10.1-10.1Z"/><path class="cls-2" d="M119.1,230.62c58.85,0,55.18-25.52,55.18-25.52l-.07-26.44H118.05v-7.94h78.47s37.66,4.27,37.66-55.11-32.87-57.28-32.87-57.28H181.69V85.89s1.06,32.87-32.34,32.87H93.64S62.35,118.25,62.35,149v50.85s-4.75,30.77,56.75,30.77Zm31-17.78a10.11,10.11,0,1,1,10.1-10.1,10.1,10.1,0,0,1-10.1,10.1Z"/></svg>