<svg id="Layer_1" data-name="Layer 1" xmlns="http://www.w3.org/2000/svg" viewBox="0 0 236.53 230.62"><defs><style>.cls-1{fill:#2489ca;}.cls-2{fill:#1070b3;}.cls-3{fill:#0877b9;}.cls-4{fill:#3c99d4;}</style></defs><path class="cls-1" d="M3.92,80.42s-5.68-4.1,1.14-9.56L20.93,56.67s4.54-4.78,9.35-.62L176.77,167v53.18s-.07,8.34-10.79,7.42Z"/><path class="cls-2" d="M41.68,114.7,3.92,149s-3.87,2.88,0,8L21.45,173s4.16,4.47,10.31-.61l40-30.35Z"/><path class="cls-3" d="M108,115l69.25-52.87-.45-52.91s-3-11.54-12.82-5.53L71.8,87.54Z"/><path class="cls-4" d="M166,227.64a9.55,9.55,0,0,0,8.9,2.77l54-26.59c6.91-4.71,5.94-10.56,5.94-10.56V34.48c0-7-7.15-9.4-7.15-9.4L180.86,2.54c-10.22-6.32-16.92,1.14-16.92,1.14s8.61-6.2,12.82,5.53v210a9.63,9.63,0,0,1-.92,4.14c-1.23,2.49-3.91,4.81-10.32,3.83Z"/></svg>